<svg xmlns="http://www.w3.org/2000/svg" xml:space="preserve" fill="#000000" fill-rule="evenodd" stroke-linejoin="round" stroke-miterlimit="2" clip-rule="evenodd" viewBox="0 0 46 32"><path fill-rule="nonzero" d="M3.471 1.06v5.942h-1.18V1.06H.077V0h5.61v1.06H3.471Zm8.116 5.942v-2.9h-3.71v2.9H6.693V0h1.182v3.042h3.711V0h1.181v7.002h-1.18Zm4.194-5.943v1.895H19.2v1.06h-3.418v1.928h3.94v1.06H14.6V0h5v1.06h-3.818ZM1.9 17.417 1.23 19H0l3.091-7.002h1.211L7.358 19h-1.26l-.669-1.582H1.9Zm1.763-4.16-1.323 3.11H4.98l-1.318-3.11Zm7.788 3.623a3.989 3.989 0 0 1-.322.01h-1.66V19H8.286v-7.003h2.842c.892 0 1.585.208 2.08.625.495.416.742 1.006.742 1.767 0 .56-.125 1.034-.376 1.421a2.2 2.2 0 0 1-1.074.85L14.067 19H12.73l-1.279-2.12Zm-.322-1.05c.547 0 .967-.119 1.26-.357.292-.237.44-.589.44-1.054 0-.453-.148-.793-.44-1.02-.293-.229-.713-.343-1.26-.343h-1.66v2.774h1.66Zm6.948-2.774V19h-1.182v-5.943h-2.212v-1.059h5.611v1.06h-2.217ZM7.221 30.996l-.009-5.23L5 30.263h-.772l-2.207-4.497v5.23H.908v-7.002H2.31l2.31 4.653 2.3-4.653H8.31v7.002H7.221Zm8.887-2.9c0 .605-.122 1.131-.366 1.577a2.484 2.484 0 0 1-1.05 1.02c-.456.234-.998.352-1.626.352-.628 0-1.17-.118-1.626-.352a2.517 2.517 0 0 1-1.054-1.02c-.245-.446-.367-.972-.367-1.578v-4.1h1.177v4.1c0 .586.168 1.05.503 1.387.34.335.798.503 1.377.503.573 0 1.024-.166 1.353-.498.332-.335.498-.799.498-1.392v-4.1h1.181v4.1Zm3.985-4.15c.45 0 .887.064 1.313.194.426.131.806.306 1.138.528l-.489 1.04a4.514 4.514 0 0 0-1.084-.493 3.383 3.383 0 0 0-.966-.162c-.355 0-.633.064-.835.191a.604.604 0 0 0-.303.542.73.73 0 0 0 .195.517c.134.14.3.253.498.337.202.085.484.18.845.284.472.14.856.278 1.152.414.3.137.554.341.762.611.212.27.318.622.318 1.055 0 .406-.113.765-.337 1.074a2.152 2.152 0 0 1-.938.708c-.397.166-.853.25-1.367.25a4.171 4.171 0 0 1-1.553-.299 4.376 4.376 0 0 1-1.308-.81l.512-1.02c.355.324.742.577 1.162.756.423.175.826.263 1.206.263.414 0 .735-.074.962-.224a.707.707 0 0 0 .347-.625.727.727 0 0 0-.205-.532 1.42 1.42 0 0 0-.513-.328 10.488 10.488 0 0 0-.84-.283 8.854 8.854 0 0 1-1.157-.41 2.106 2.106 0 0 1-.752-.586c-.208-.26-.312-.607-.312-1.04 0-.394.106-.737.317-1.03.215-.296.514-.524.9-.684.383-.159.827-.239 1.332-.239Zm5.097 1.107v1.895h3.418v1.06H25.19v1.928h3.941v1.06H24.01v-7.002h5v1.06H25.19Zm11.328 3.042c0 .606-.122 1.132-.366 1.578a2.484 2.484 0 0 1-1.05 1.02c-.455.234-.997.352-1.626.352-.628 0-1.17-.118-1.626-.352a2.517 2.517 0 0 1-1.054-1.02c-.245-.446-.366-.972-.366-1.578v-4.1h1.176v4.1c0 .586.168 1.05.503 1.387.34.335.798.503 1.377.503.573 0 1.024-.166 1.353-.498.332-.335.498-.799.498-1.392v-4.1h1.181v4.1Zm7.998 2.901-.009-5.23-2.212 4.497h-.772l-2.207-4.497v5.23h-1.113v-7.002h1.401l2.31 4.653 2.3-4.653h1.391v7.002h-1.089Z"/></svg>
